<mxfile host="app.diagrams.net" modified="2023-11-03T10:04:35.988Z" agent="Mozilla/5.0 (Windows NT 10.0; Win64; x64; rv:109.0) Gecko/20100101 Firefox/119.0" etag="CyQGPK-mapFTq49kJjwh" version="22.0.8" type="github">
  <diagram name="Page-1" id="uKjtFc9M2Uwl9UPxMeZr">
    <mxGraphModel dx="420" dy="262" grid="1" gridSize="10" guides="1" tooltips="1" connect="1" arrows="1" fold="1" page="1" pageScale="1" pageWidth="850" pageHeight="1100" math="0" shadow="0">
      <root>
        <mxCell id="0" />
        <mxCell id="1" parent="0" />
        <mxCell id="V9A5m8MpLYF5WDy2gn7o-1" value="MicroController Bridge" style="swimlane;whiteSpace=wrap;html=1;" parent="1" vertex="1">
          <mxGeometry x="250" y="310" width="210" height="200" as="geometry" />
        </mxCell>
        <mxCell id="V9A5m8MpLYF5WDy2gn7o-83" value="Bridge Task" style="rounded=0;whiteSpace=wrap;html=1;" parent="V9A5m8MpLYF5WDy2gn7o-1" vertex="1">
          <mxGeometry x="10" y="30" width="70" height="60" as="geometry" />
        </mxCell>
        <mxCell id="V9A5m8MpLYF5WDy2gn7o-84" value="CLK Event Task" style="rounded=0;whiteSpace=wrap;html=1;" parent="V9A5m8MpLYF5WDy2gn7o-1" vertex="1">
          <mxGeometry x="130" y="30" width="70" height="60" as="geometry" />
        </mxCell>
        <mxCell id="O0PuOpKHKlJurByZHvD9-2" value="MessageQueue" style="rounded=0;whiteSpace=wrap;html=1;" vertex="1" parent="V9A5m8MpLYF5WDy2gn7o-1">
          <mxGeometry x="45" y="120" width="120" height="60" as="geometry" />
        </mxCell>
        <mxCell id="O0PuOpKHKlJurByZHvD9-3" value="" style="endArrow=classic;html=1;rounded=0;exitX=0.5;exitY=1;exitDx=0;exitDy=0;entryX=0;entryY=0;entryDx=0;entryDy=0;" edge="1" parent="V9A5m8MpLYF5WDy2gn7o-1" source="V9A5m8MpLYF5WDy2gn7o-83" target="O0PuOpKHKlJurByZHvD9-2">
          <mxGeometry width="50" height="50" relative="1" as="geometry">
            <mxPoint x="80" y="140" as="sourcePoint" />
            <mxPoint x="130" y="90" as="targetPoint" />
          </mxGeometry>
        </mxCell>
        <mxCell id="O0PuOpKHKlJurByZHvD9-4" value="" style="endArrow=classic;html=1;rounded=0;entryX=0.5;entryY=1;entryDx=0;entryDy=0;exitX=1;exitY=0;exitDx=0;exitDy=0;" edge="1" parent="V9A5m8MpLYF5WDy2gn7o-1" source="O0PuOpKHKlJurByZHvD9-2" target="V9A5m8MpLYF5WDy2gn7o-84">
          <mxGeometry width="50" height="50" relative="1" as="geometry">
            <mxPoint x="140" y="140" as="sourcePoint" />
            <mxPoint x="190" y="90" as="targetPoint" />
          </mxGeometry>
        </mxCell>
        <mxCell id="O0PuOpKHKlJurByZHvD9-5" value="&lt;font style=&quot;font-size: 8px;&quot;&gt;Queue Received message&lt;br&gt;&lt;/font&gt;" style="text;html=1;strokeColor=none;fillColor=none;align=center;verticalAlign=middle;whiteSpace=wrap;rounded=0;" vertex="1" parent="V9A5m8MpLYF5WDy2gn7o-1">
          <mxGeometry y="100" width="45" height="20" as="geometry" />
        </mxCell>
        <mxCell id="O0PuOpKHKlJurByZHvD9-7" value="&lt;div&gt;&lt;font style=&quot;font-size: 8px;&quot;&gt;Retrieve message&amp;nbsp;&lt;/font&gt;&lt;/div&gt;&lt;div&gt;&lt;font style=&quot;font-size: 8px;&quot;&gt;from&amp;nbsp;&lt;/font&gt;&lt;/div&gt;&lt;div&gt;&lt;font style=&quot;font-size: 8px;&quot;&gt;queue&lt;/font&gt;&lt;/div&gt;" style="text;html=1;strokeColor=none;fillColor=none;align=center;verticalAlign=middle;whiteSpace=wrap;rounded=0;" vertex="1" parent="V9A5m8MpLYF5WDy2gn7o-1">
          <mxGeometry x="170" y="110" width="30" height="20" as="geometry" />
        </mxCell>
        <mxCell id="O0PuOpKHKlJurByZHvD9-18" value="" style="endArrow=classic;html=1;rounded=0;entryX=0.855;entryY=0.011;entryDx=0;entryDy=0;exitX=0.25;exitY=1;exitDx=0;exitDy=0;entryPerimeter=0;" edge="1" parent="V9A5m8MpLYF5WDy2gn7o-1" source="V9A5m8MpLYF5WDy2gn7o-84" target="O0PuOpKHKlJurByZHvD9-2">
          <mxGeometry width="50" height="50" relative="1" as="geometry">
            <mxPoint x="100" y="90" as="sourcePoint" />
            <mxPoint x="150" y="40" as="targetPoint" />
          </mxGeometry>
        </mxCell>
        <mxCell id="O0PuOpKHKlJurByZHvD9-19" value="" style="endArrow=classic;html=1;rounded=0;entryX=0.75;entryY=1;entryDx=0;entryDy=0;exitX=0.143;exitY=-0.004;exitDx=0;exitDy=0;exitPerimeter=0;" edge="1" parent="V9A5m8MpLYF5WDy2gn7o-1" source="O0PuOpKHKlJurByZHvD9-2" target="V9A5m8MpLYF5WDy2gn7o-83">
          <mxGeometry width="50" height="50" relative="1" as="geometry">
            <mxPoint x="50" y="150" as="sourcePoint" />
            <mxPoint x="100" y="100" as="targetPoint" />
          </mxGeometry>
        </mxCell>
        <mxCell id="V9A5m8MpLYF5WDy2gn7o-2" value="FPGA Node 1" style="swimlane;whiteSpace=wrap;html=1;" parent="1" vertex="1">
          <mxGeometry x="580" y="20" width="220" height="240" as="geometry" />
        </mxCell>
        <mxCell id="V9A5m8MpLYF5WDy2gn7o-7" value="Core Controller" style="swimlane;whiteSpace=wrap;html=1;" parent="V9A5m8MpLYF5WDy2gn7o-2" vertex="1">
          <mxGeometry x="10" y="30" width="200" height="200" as="geometry" />
        </mxCell>
        <mxCell id="V9A5m8MpLYF5WDy2gn7o-10" value="Core 1" style="rounded=0;whiteSpace=wrap;html=1;" parent="V9A5m8MpLYF5WDy2gn7o-7" vertex="1">
          <mxGeometry x="30" y="40" width="70" height="70" as="geometry" />
        </mxCell>
        <mxCell id="V9A5m8MpLYF5WDy2gn7o-11" value="Core 2" style="rounded=0;whiteSpace=wrap;html=1;" parent="V9A5m8MpLYF5WDy2gn7o-7" vertex="1">
          <mxGeometry x="100" y="40" width="70" height="70" as="geometry" />
        </mxCell>
        <mxCell id="V9A5m8MpLYF5WDy2gn7o-12" value="Core .." style="rounded=0;whiteSpace=wrap;html=1;" parent="V9A5m8MpLYF5WDy2gn7o-7" vertex="1">
          <mxGeometry x="30" y="110" width="70" height="70" as="geometry" />
        </mxCell>
        <mxCell id="V9A5m8MpLYF5WDy2gn7o-13" value="Core n" style="rounded=0;whiteSpace=wrap;html=1;" parent="V9A5m8MpLYF5WDy2gn7o-7" vertex="1">
          <mxGeometry x="100" y="110" width="70" height="70" as="geometry" />
        </mxCell>
        <mxCell id="V9A5m8MpLYF5WDy2gn7o-3" value="Orchestrator" style="rounded=0;whiteSpace=wrap;html=1;" parent="1" vertex="1">
          <mxGeometry x="70" y="320" width="120" height="60" as="geometry" />
        </mxCell>
        <mxCell id="V9A5m8MpLYF5WDy2gn7o-14" value="FPGA Node 2" style="swimlane;whiteSpace=wrap;html=1;" parent="1" vertex="1">
          <mxGeometry x="580" y="290" width="220" height="240" as="geometry" />
        </mxCell>
        <mxCell id="V9A5m8MpLYF5WDy2gn7o-15" value="Core Controller" style="swimlane;whiteSpace=wrap;html=1;" parent="V9A5m8MpLYF5WDy2gn7o-14" vertex="1">
          <mxGeometry x="10" y="30" width="200" height="200" as="geometry" />
        </mxCell>
        <mxCell id="V9A5m8MpLYF5WDy2gn7o-16" value="Core 1" style="rounded=0;whiteSpace=wrap;html=1;" parent="V9A5m8MpLYF5WDy2gn7o-15" vertex="1">
          <mxGeometry x="30" y="40" width="70" height="70" as="geometry" />
        </mxCell>
        <mxCell id="V9A5m8MpLYF5WDy2gn7o-17" value="Core 2" style="rounded=0;whiteSpace=wrap;html=1;" parent="V9A5m8MpLYF5WDy2gn7o-15" vertex="1">
          <mxGeometry x="100" y="40" width="70" height="70" as="geometry" />
        </mxCell>
        <mxCell id="V9A5m8MpLYF5WDy2gn7o-18" value="Core .." style="rounded=0;whiteSpace=wrap;html=1;" parent="V9A5m8MpLYF5WDy2gn7o-15" vertex="1">
          <mxGeometry x="30" y="110" width="70" height="70" as="geometry" />
        </mxCell>
        <mxCell id="V9A5m8MpLYF5WDy2gn7o-19" value="Core n" style="rounded=0;whiteSpace=wrap;html=1;" parent="V9A5m8MpLYF5WDy2gn7o-15" vertex="1">
          <mxGeometry x="100" y="110" width="70" height="70" as="geometry" />
        </mxCell>
        <mxCell id="V9A5m8MpLYF5WDy2gn7o-20" value="FPGA Node m" style="swimlane;whiteSpace=wrap;html=1;" parent="1" vertex="1">
          <mxGeometry x="580" y="560" width="220" height="240" as="geometry" />
        </mxCell>
        <mxCell id="V9A5m8MpLYF5WDy2gn7o-21" value="Core Controller" style="swimlane;whiteSpace=wrap;html=1;" parent="V9A5m8MpLYF5WDy2gn7o-20" vertex="1">
          <mxGeometry x="10" y="30" width="200" height="200" as="geometry" />
        </mxCell>
        <mxCell id="V9A5m8MpLYF5WDy2gn7o-22" value="Core 1" style="rounded=0;whiteSpace=wrap;html=1;" parent="V9A5m8MpLYF5WDy2gn7o-21" vertex="1">
          <mxGeometry x="30" y="40" width="70" height="70" as="geometry" />
        </mxCell>
        <mxCell id="V9A5m8MpLYF5WDy2gn7o-23" value="Core 2" style="rounded=0;whiteSpace=wrap;html=1;" parent="V9A5m8MpLYF5WDy2gn7o-21" vertex="1">
          <mxGeometry x="100" y="40" width="70" height="70" as="geometry" />
        </mxCell>
        <mxCell id="V9A5m8MpLYF5WDy2gn7o-24" value="Core .." style="rounded=0;whiteSpace=wrap;html=1;" parent="V9A5m8MpLYF5WDy2gn7o-21" vertex="1">
          <mxGeometry x="30" y="110" width="70" height="70" as="geometry" />
        </mxCell>
        <mxCell id="V9A5m8MpLYF5WDy2gn7o-25" value="Core n" style="rounded=0;whiteSpace=wrap;html=1;" parent="V9A5m8MpLYF5WDy2gn7o-21" vertex="1">
          <mxGeometry x="100" y="110" width="70" height="70" as="geometry" />
        </mxCell>
        <mxCell id="V9A5m8MpLYF5WDy2gn7o-26" value="" style="endArrow=classic;html=1;rounded=0;" parent="1" edge="1">
          <mxGeometry width="50" height="50" relative="1" as="geometry">
            <mxPoint x="190" y="340" as="sourcePoint" />
            <mxPoint x="250" y="340" as="targetPoint" />
          </mxGeometry>
        </mxCell>
        <mxCell id="V9A5m8MpLYF5WDy2gn7o-27" value="" style="endArrow=classic;html=1;rounded=0;exitX=0;exitY=0.25;exitDx=0;exitDy=0;" parent="1" source="V9A5m8MpLYF5WDy2gn7o-1" edge="1">
          <mxGeometry width="50" height="50" relative="1" as="geometry">
            <mxPoint x="270" y="360" as="sourcePoint" />
            <mxPoint x="190" y="360" as="targetPoint" />
          </mxGeometry>
        </mxCell>
        <mxCell id="V9A5m8MpLYF5WDy2gn7o-28" value="" style="endArrow=none;html=1;rounded=0;" parent="1" edge="1">
          <mxGeometry width="50" height="50" relative="1" as="geometry">
            <mxPoint x="520" y="760" as="sourcePoint" />
            <mxPoint x="520" y="10" as="targetPoint" />
          </mxGeometry>
        </mxCell>
        <mxCell id="V9A5m8MpLYF5WDy2gn7o-29" value="" style="endArrow=none;html=1;rounded=0;" parent="1" edge="1">
          <mxGeometry width="50" height="50" relative="1" as="geometry">
            <mxPoint x="500" y="50" as="sourcePoint" />
            <mxPoint x="540" y="10" as="targetPoint" />
          </mxGeometry>
        </mxCell>
        <mxCell id="V9A5m8MpLYF5WDy2gn7o-30" value="&lt;font style=&quot;font-size: 20px;&quot;&gt;Parallel Data Bus&lt;br&gt;&lt;/font&gt;" style="text;html=1;strokeColor=none;fillColor=none;align=center;verticalAlign=middle;whiteSpace=wrap;rounded=0;" parent="1" vertex="1">
          <mxGeometry x="440" y="90" width="60" height="30" as="geometry" />
        </mxCell>
        <mxCell id="V9A5m8MpLYF5WDy2gn7o-35" value="" style="endArrow=classic;startArrow=classic;html=1;rounded=0;" parent="1" edge="1">
          <mxGeometry width="50" height="50" relative="1" as="geometry">
            <mxPoint x="520" y="340" as="sourcePoint" />
            <mxPoint x="460" y="340" as="targetPoint" />
          </mxGeometry>
        </mxCell>
        <mxCell id="V9A5m8MpLYF5WDy2gn7o-36" value="" style="endArrow=classic;startArrow=classic;html=1;rounded=0;" parent="1" edge="1">
          <mxGeometry width="50" height="50" relative="1" as="geometry">
            <mxPoint x="520" y="350" as="sourcePoint" />
            <mxPoint x="460" y="350" as="targetPoint" />
          </mxGeometry>
        </mxCell>
        <mxCell id="V9A5m8MpLYF5WDy2gn7o-37" value="" style="endArrow=classic;startArrow=classic;html=1;rounded=0;entryX=1;entryY=0.25;entryDx=0;entryDy=0;" parent="1" edge="1" target="V9A5m8MpLYF5WDy2gn7o-1">
          <mxGeometry width="50" height="50" relative="1" as="geometry">
            <mxPoint x="520" y="360" as="sourcePoint" />
            <mxPoint x="480" y="360" as="targetPoint" />
          </mxGeometry>
        </mxCell>
        <mxCell id="V9A5m8MpLYF5WDy2gn7o-38" value="" style="endArrow=classic;startArrow=classic;html=1;rounded=0;" parent="1" edge="1">
          <mxGeometry width="50" height="50" relative="1" as="geometry">
            <mxPoint x="520" y="370" as="sourcePoint" />
            <mxPoint x="460" y="370" as="targetPoint" />
          </mxGeometry>
        </mxCell>
        <mxCell id="V9A5m8MpLYF5WDy2gn7o-39" value="" style="endArrow=classic;startArrow=classic;html=1;rounded=0;" parent="1" edge="1">
          <mxGeometry width="50" height="50" relative="1" as="geometry">
            <mxPoint x="520" y="380" as="sourcePoint" />
            <mxPoint x="460" y="380" as="targetPoint" />
          </mxGeometry>
        </mxCell>
        <mxCell id="V9A5m8MpLYF5WDy2gn7o-40" value="" style="endArrow=classic;startArrow=classic;html=1;rounded=0;" parent="1" edge="1">
          <mxGeometry width="50" height="50" relative="1" as="geometry">
            <mxPoint x="520" y="390" as="sourcePoint" />
            <mxPoint x="460" y="390" as="targetPoint" />
          </mxGeometry>
        </mxCell>
        <mxCell id="V9A5m8MpLYF5WDy2gn7o-41" value="" style="endArrow=classic;startArrow=classic;html=1;rounded=0;" parent="1" edge="1">
          <mxGeometry width="50" height="50" relative="1" as="geometry">
            <mxPoint x="520" y="400" as="sourcePoint" />
            <mxPoint x="460" y="400" as="targetPoint" />
          </mxGeometry>
        </mxCell>
        <mxCell id="V9A5m8MpLYF5WDy2gn7o-42" value="" style="endArrow=classic;startArrow=classic;html=1;rounded=0;entryX=1;entryY=0.5;entryDx=0;entryDy=0;" parent="1" edge="1" target="V9A5m8MpLYF5WDy2gn7o-1">
          <mxGeometry width="50" height="50" relative="1" as="geometry">
            <mxPoint x="520" y="409.8" as="sourcePoint" />
            <mxPoint x="480" y="409.8" as="targetPoint" />
          </mxGeometry>
        </mxCell>
        <mxCell id="V9A5m8MpLYF5WDy2gn7o-43" value="" style="endArrow=classic;startArrow=classic;html=1;rounded=0;" parent="1" edge="1">
          <mxGeometry width="50" height="50" relative="1" as="geometry">
            <mxPoint x="520" y="420" as="sourcePoint" />
            <mxPoint x="460" y="420" as="targetPoint" />
          </mxGeometry>
        </mxCell>
        <mxCell id="V9A5m8MpLYF5WDy2gn7o-44" value="" style="endArrow=classic;startArrow=classic;html=1;rounded=0;" parent="1" edge="1">
          <mxGeometry width="50" height="50" relative="1" as="geometry">
            <mxPoint x="520" y="430" as="sourcePoint" />
            <mxPoint x="460" y="430" as="targetPoint" />
          </mxGeometry>
        </mxCell>
        <mxCell id="V9A5m8MpLYF5WDy2gn7o-45" value="" style="endArrow=classic;startArrow=classic;html=1;rounded=0;" parent="1" edge="1">
          <mxGeometry width="50" height="50" relative="1" as="geometry">
            <mxPoint x="520" y="440" as="sourcePoint" />
            <mxPoint x="460" y="440" as="targetPoint" />
          </mxGeometry>
        </mxCell>
        <mxCell id="V9A5m8MpLYF5WDy2gn7o-46" value="" style="endArrow=classic;startArrow=classic;html=1;rounded=0;" parent="1" edge="1">
          <mxGeometry width="50" height="50" relative="1" as="geometry">
            <mxPoint x="520" y="450" as="sourcePoint" />
            <mxPoint x="460" y="450" as="targetPoint" />
          </mxGeometry>
        </mxCell>
        <mxCell id="V9A5m8MpLYF5WDy2gn7o-47" value="" style="endArrow=classic;startArrow=classic;html=1;rounded=0;" parent="1" edge="1">
          <mxGeometry width="50" height="50" relative="1" as="geometry">
            <mxPoint x="580" y="50" as="sourcePoint" />
            <mxPoint x="520" y="50" as="targetPoint" />
          </mxGeometry>
        </mxCell>
        <mxCell id="V9A5m8MpLYF5WDy2gn7o-48" value="" style="endArrow=classic;startArrow=classic;html=1;rounded=0;" parent="1" edge="1">
          <mxGeometry width="50" height="50" relative="1" as="geometry">
            <mxPoint x="580" y="60" as="sourcePoint" />
            <mxPoint x="520" y="60" as="targetPoint" />
          </mxGeometry>
        </mxCell>
        <mxCell id="V9A5m8MpLYF5WDy2gn7o-49" value="" style="endArrow=classic;startArrow=classic;html=1;rounded=0;" parent="1" edge="1">
          <mxGeometry width="50" height="50" relative="1" as="geometry">
            <mxPoint x="580" y="70" as="sourcePoint" />
            <mxPoint x="520" y="70" as="targetPoint" />
          </mxGeometry>
        </mxCell>
        <mxCell id="V9A5m8MpLYF5WDy2gn7o-50" value="" style="endArrow=classic;startArrow=classic;html=1;rounded=0;" parent="1" edge="1">
          <mxGeometry width="50" height="50" relative="1" as="geometry">
            <mxPoint x="580" y="80" as="sourcePoint" />
            <mxPoint x="520" y="80" as="targetPoint" />
          </mxGeometry>
        </mxCell>
        <mxCell id="V9A5m8MpLYF5WDy2gn7o-51" value="" style="endArrow=classic;startArrow=classic;html=1;rounded=0;" parent="1" edge="1">
          <mxGeometry width="50" height="50" relative="1" as="geometry">
            <mxPoint x="580" y="90" as="sourcePoint" />
            <mxPoint x="520" y="90" as="targetPoint" />
          </mxGeometry>
        </mxCell>
        <mxCell id="V9A5m8MpLYF5WDy2gn7o-52" value="" style="endArrow=classic;startArrow=classic;html=1;rounded=0;" parent="1" edge="1">
          <mxGeometry width="50" height="50" relative="1" as="geometry">
            <mxPoint x="580" y="100" as="sourcePoint" />
            <mxPoint x="520" y="100" as="targetPoint" />
          </mxGeometry>
        </mxCell>
        <mxCell id="V9A5m8MpLYF5WDy2gn7o-53" value="" style="endArrow=classic;startArrow=classic;html=1;rounded=0;" parent="1" edge="1">
          <mxGeometry width="50" height="50" relative="1" as="geometry">
            <mxPoint x="580" y="110" as="sourcePoint" />
            <mxPoint x="520" y="110" as="targetPoint" />
          </mxGeometry>
        </mxCell>
        <mxCell id="V9A5m8MpLYF5WDy2gn7o-54" value="" style="endArrow=classic;startArrow=classic;html=1;rounded=0;" parent="1" edge="1">
          <mxGeometry width="50" height="50" relative="1" as="geometry">
            <mxPoint x="580" y="119.80000000000001" as="sourcePoint" />
            <mxPoint x="520" y="120" as="targetPoint" />
          </mxGeometry>
        </mxCell>
        <mxCell id="V9A5m8MpLYF5WDy2gn7o-55" value="" style="endArrow=classic;startArrow=classic;html=1;rounded=0;" parent="1" edge="1">
          <mxGeometry width="50" height="50" relative="1" as="geometry">
            <mxPoint x="580" y="130" as="sourcePoint" />
            <mxPoint x="520" y="130" as="targetPoint" />
          </mxGeometry>
        </mxCell>
        <mxCell id="V9A5m8MpLYF5WDy2gn7o-56" value="" style="endArrow=classic;startArrow=classic;html=1;rounded=0;" parent="1" edge="1">
          <mxGeometry width="50" height="50" relative="1" as="geometry">
            <mxPoint x="580" y="140" as="sourcePoint" />
            <mxPoint x="520" y="140" as="targetPoint" />
          </mxGeometry>
        </mxCell>
        <mxCell id="V9A5m8MpLYF5WDy2gn7o-57" value="" style="endArrow=classic;startArrow=classic;html=1;rounded=0;" parent="1" edge="1">
          <mxGeometry width="50" height="50" relative="1" as="geometry">
            <mxPoint x="580" y="150" as="sourcePoint" />
            <mxPoint x="520" y="150" as="targetPoint" />
          </mxGeometry>
        </mxCell>
        <mxCell id="V9A5m8MpLYF5WDy2gn7o-58" value="" style="endArrow=classic;startArrow=classic;html=1;rounded=0;" parent="1" edge="1">
          <mxGeometry width="50" height="50" relative="1" as="geometry">
            <mxPoint x="580" y="160" as="sourcePoint" />
            <mxPoint x="520" y="160" as="targetPoint" />
          </mxGeometry>
        </mxCell>
        <mxCell id="V9A5m8MpLYF5WDy2gn7o-59" value="" style="endArrow=classic;startArrow=classic;html=1;rounded=0;" parent="1" edge="1">
          <mxGeometry width="50" height="50" relative="1" as="geometry">
            <mxPoint x="580" y="320" as="sourcePoint" />
            <mxPoint x="520" y="320" as="targetPoint" />
          </mxGeometry>
        </mxCell>
        <mxCell id="V9A5m8MpLYF5WDy2gn7o-60" value="" style="endArrow=classic;startArrow=classic;html=1;rounded=0;" parent="1" edge="1">
          <mxGeometry width="50" height="50" relative="1" as="geometry">
            <mxPoint x="580" y="330" as="sourcePoint" />
            <mxPoint x="520" y="330" as="targetPoint" />
          </mxGeometry>
        </mxCell>
        <mxCell id="V9A5m8MpLYF5WDy2gn7o-61" value="" style="endArrow=classic;startArrow=classic;html=1;rounded=0;" parent="1" edge="1">
          <mxGeometry width="50" height="50" relative="1" as="geometry">
            <mxPoint x="580" y="340" as="sourcePoint" />
            <mxPoint x="520" y="340" as="targetPoint" />
          </mxGeometry>
        </mxCell>
        <mxCell id="V9A5m8MpLYF5WDy2gn7o-62" value="" style="endArrow=classic;startArrow=classic;html=1;rounded=0;" parent="1" edge="1">
          <mxGeometry width="50" height="50" relative="1" as="geometry">
            <mxPoint x="580" y="350" as="sourcePoint" />
            <mxPoint x="520" y="350" as="targetPoint" />
          </mxGeometry>
        </mxCell>
        <mxCell id="V9A5m8MpLYF5WDy2gn7o-63" value="" style="endArrow=classic;startArrow=classic;html=1;rounded=0;" parent="1" edge="1">
          <mxGeometry width="50" height="50" relative="1" as="geometry">
            <mxPoint x="580" y="360" as="sourcePoint" />
            <mxPoint x="520" y="360" as="targetPoint" />
          </mxGeometry>
        </mxCell>
        <mxCell id="V9A5m8MpLYF5WDy2gn7o-64" value="" style="endArrow=classic;startArrow=classic;html=1;rounded=0;" parent="1" edge="1">
          <mxGeometry width="50" height="50" relative="1" as="geometry">
            <mxPoint x="580" y="370" as="sourcePoint" />
            <mxPoint x="520" y="370" as="targetPoint" />
          </mxGeometry>
        </mxCell>
        <mxCell id="V9A5m8MpLYF5WDy2gn7o-65" value="" style="endArrow=classic;startArrow=classic;html=1;rounded=0;" parent="1" edge="1">
          <mxGeometry width="50" height="50" relative="1" as="geometry">
            <mxPoint x="580" y="380" as="sourcePoint" />
            <mxPoint x="520" y="380" as="targetPoint" />
          </mxGeometry>
        </mxCell>
        <mxCell id="V9A5m8MpLYF5WDy2gn7o-66" value="" style="endArrow=classic;startArrow=classic;html=1;rounded=0;" parent="1" edge="1">
          <mxGeometry width="50" height="50" relative="1" as="geometry">
            <mxPoint x="580" y="389.8" as="sourcePoint" />
            <mxPoint x="520" y="390" as="targetPoint" />
          </mxGeometry>
        </mxCell>
        <mxCell id="V9A5m8MpLYF5WDy2gn7o-67" value="" style="endArrow=classic;startArrow=classic;html=1;rounded=0;" parent="1" edge="1">
          <mxGeometry width="50" height="50" relative="1" as="geometry">
            <mxPoint x="580" y="400" as="sourcePoint" />
            <mxPoint x="520" y="400" as="targetPoint" />
          </mxGeometry>
        </mxCell>
        <mxCell id="V9A5m8MpLYF5WDy2gn7o-68" value="" style="endArrow=classic;startArrow=classic;html=1;rounded=0;" parent="1" edge="1">
          <mxGeometry width="50" height="50" relative="1" as="geometry">
            <mxPoint x="580" y="410" as="sourcePoint" />
            <mxPoint x="520" y="410" as="targetPoint" />
          </mxGeometry>
        </mxCell>
        <mxCell id="V9A5m8MpLYF5WDy2gn7o-69" value="" style="endArrow=classic;startArrow=classic;html=1;rounded=0;" parent="1" edge="1">
          <mxGeometry width="50" height="50" relative="1" as="geometry">
            <mxPoint x="580" y="420" as="sourcePoint" />
            <mxPoint x="520" y="420" as="targetPoint" />
          </mxGeometry>
        </mxCell>
        <mxCell id="V9A5m8MpLYF5WDy2gn7o-70" value="" style="endArrow=classic;startArrow=classic;html=1;rounded=0;" parent="1" edge="1">
          <mxGeometry width="50" height="50" relative="1" as="geometry">
            <mxPoint x="580" y="430" as="sourcePoint" />
            <mxPoint x="520" y="430" as="targetPoint" />
          </mxGeometry>
        </mxCell>
        <mxCell id="V9A5m8MpLYF5WDy2gn7o-71" value="" style="endArrow=classic;startArrow=classic;html=1;rounded=0;" parent="1" edge="1">
          <mxGeometry width="50" height="50" relative="1" as="geometry">
            <mxPoint x="580" y="590" as="sourcePoint" />
            <mxPoint x="520" y="590" as="targetPoint" />
          </mxGeometry>
        </mxCell>
        <mxCell id="V9A5m8MpLYF5WDy2gn7o-72" value="" style="endArrow=classic;startArrow=classic;html=1;rounded=0;" parent="1" edge="1">
          <mxGeometry width="50" height="50" relative="1" as="geometry">
            <mxPoint x="580" y="600" as="sourcePoint" />
            <mxPoint x="520" y="600" as="targetPoint" />
          </mxGeometry>
        </mxCell>
        <mxCell id="V9A5m8MpLYF5WDy2gn7o-73" value="" style="endArrow=classic;startArrow=classic;html=1;rounded=0;" parent="1" edge="1">
          <mxGeometry width="50" height="50" relative="1" as="geometry">
            <mxPoint x="580" y="610" as="sourcePoint" />
            <mxPoint x="520" y="610" as="targetPoint" />
          </mxGeometry>
        </mxCell>
        <mxCell id="V9A5m8MpLYF5WDy2gn7o-74" value="" style="endArrow=classic;startArrow=classic;html=1;rounded=0;" parent="1" edge="1">
          <mxGeometry width="50" height="50" relative="1" as="geometry">
            <mxPoint x="580" y="620" as="sourcePoint" />
            <mxPoint x="520" y="620" as="targetPoint" />
          </mxGeometry>
        </mxCell>
        <mxCell id="V9A5m8MpLYF5WDy2gn7o-75" value="" style="endArrow=classic;startArrow=classic;html=1;rounded=0;" parent="1" edge="1">
          <mxGeometry width="50" height="50" relative="1" as="geometry">
            <mxPoint x="580" y="630" as="sourcePoint" />
            <mxPoint x="520" y="630" as="targetPoint" />
          </mxGeometry>
        </mxCell>
        <mxCell id="V9A5m8MpLYF5WDy2gn7o-76" value="" style="endArrow=classic;startArrow=classic;html=1;rounded=0;" parent="1" edge="1">
          <mxGeometry width="50" height="50" relative="1" as="geometry">
            <mxPoint x="580" y="640" as="sourcePoint" />
            <mxPoint x="520" y="640" as="targetPoint" />
          </mxGeometry>
        </mxCell>
        <mxCell id="V9A5m8MpLYF5WDy2gn7o-77" value="" style="endArrow=classic;startArrow=classic;html=1;rounded=0;" parent="1" edge="1">
          <mxGeometry width="50" height="50" relative="1" as="geometry">
            <mxPoint x="580" y="650" as="sourcePoint" />
            <mxPoint x="520" y="650" as="targetPoint" />
          </mxGeometry>
        </mxCell>
        <mxCell id="V9A5m8MpLYF5WDy2gn7o-78" value="" style="endArrow=classic;startArrow=classic;html=1;rounded=0;" parent="1" edge="1">
          <mxGeometry width="50" height="50" relative="1" as="geometry">
            <mxPoint x="580" y="659.8" as="sourcePoint" />
            <mxPoint x="520" y="660" as="targetPoint" />
          </mxGeometry>
        </mxCell>
        <mxCell id="V9A5m8MpLYF5WDy2gn7o-79" value="" style="endArrow=classic;startArrow=classic;html=1;rounded=0;" parent="1" edge="1">
          <mxGeometry width="50" height="50" relative="1" as="geometry">
            <mxPoint x="580" y="670" as="sourcePoint" />
            <mxPoint x="520" y="670" as="targetPoint" />
          </mxGeometry>
        </mxCell>
        <mxCell id="V9A5m8MpLYF5WDy2gn7o-80" value="" style="endArrow=classic;startArrow=classic;html=1;rounded=0;" parent="1" edge="1">
          <mxGeometry width="50" height="50" relative="1" as="geometry">
            <mxPoint x="580" y="680" as="sourcePoint" />
            <mxPoint x="520" y="680" as="targetPoint" />
          </mxGeometry>
        </mxCell>
        <mxCell id="V9A5m8MpLYF5WDy2gn7o-81" value="" style="endArrow=classic;startArrow=classic;html=1;rounded=0;" parent="1" edge="1">
          <mxGeometry width="50" height="50" relative="1" as="geometry">
            <mxPoint x="580" y="690" as="sourcePoint" />
            <mxPoint x="520" y="690" as="targetPoint" />
          </mxGeometry>
        </mxCell>
        <mxCell id="V9A5m8MpLYF5WDy2gn7o-82" value="" style="endArrow=classic;startArrow=classic;html=1;rounded=0;" parent="1" edge="1">
          <mxGeometry width="50" height="50" relative="1" as="geometry">
            <mxPoint x="580" y="700" as="sourcePoint" />
            <mxPoint x="520" y="700" as="targetPoint" />
          </mxGeometry>
        </mxCell>
      </root>
    </mxGraphModel>
  </diagram>
</mxfile>
